<?xml version="1.0" encoding="UTF-8"?>
<svg version="1.1" xmlns="http://www.w3.org/2000/svg" width="128" height="128">
<path d="M0 0 C3.13882808 1.41009987 6.13611265 2.90986105 9.1171875 4.625 C9.1171875 5.285 9.1171875 5.945 9.1171875 6.625 C9.76816406 6.71265625 10.41914062 6.8003125 11.08984375 6.890625 C15.17349657 7.88124014 18.76557047 9.58414017 22.5546875 11.375 C23.29267578 11.71015625 24.03066406 12.0453125 24.79101562 12.390625 C30.68353285 15.15617975 35.43380825 18.09993112 39.1171875 23.625 C39.5893288 25.41226624 39.98663116 27.21988131 40.3359375 29.03515625 C40.54605469 30.10830078 40.75617188 31.18144531 40.97265625 32.28710938 C41.18535156 33.40923828 41.39804688 34.53136719 41.6171875 35.6875 C41.82988281 36.78255859 42.04257813 37.87761719 42.26171875 39.00585938 C42.88413513 42.21149466 43.50073058 45.41821431 44.1171875 48.625 C44.47650211 50.48619347 44.83824414 52.34692101 45.203125 54.20703125 C45.35313965 54.97635986 45.5031543 55.74568848 45.65771484 56.53833008 C46.08259413 58.4678961 46.6565648 60.36299351 47.2421875 62.25 C48.63751665 67.63198388 49.44167705 71.33221522 46.62109375 76.21484375 C45.39856504 77.94570041 44.14066251 79.6522792 42.84375 81.328125 C41.30524876 83.37481896 40.17213949 85.30197441 39.1171875 87.625 C38.4571875 87.625 37.7971875 87.625 37.1171875 87.625 C36.6221875 89.11 36.6221875 89.11 36.1171875 90.625 C35.4571875 90.625 34.7971875 90.625 34.1171875 90.625 C33.87613281 91.33785156 33.63507813 92.05070312 33.38671875 92.78515625 C31.93067607 96.04221171 30.10368522 98.33847749 27.8046875 101.0625 C26.99902344 102.02027344 26.19335938 102.97804688 25.36328125 103.96484375 C24.25146484 105.28162109 24.25146484 105.28162109 23.1171875 106.625 C22.19979566 107.79109653 21.2829494 108.95762301 20.3671875 110.125 C17.48562607 113.32673492 15.2461628 115.34506227 10.83874512 115.92459106 C7.9643012 116.07263893 5.10483818 116.11946503 2.2265625 116.12890625 C0.6377829 116.14388405 0.6377829 116.14388405 -0.98309326 116.15916443 C-3.22225039 116.17433395 -5.46147514 116.18139058 -7.70068359 116.1809082 C-11.10759883 116.18745157 -14.51157119 116.24189875 -17.91796875 116.29882812 C-20.09894842 116.30763452 -22.27994187 116.31358584 -24.4609375 116.31640625 C-25.47061584 116.3379628 -26.48029419 116.35951935 -27.52056885 116.38172913 C-35.6170197 116.30422503 -40.82171714 113.66618364 -46.54156494 107.97438049 C-49.8828125 104.16748079 -49.8828125 104.16748079 -49.8828125 101.625 C-50.5428125 101.625 -51.2028125 101.625 -51.8828125 101.625 C-53.3848584 99.8012979 -54.80997419 97.91386233 -56.1953125 96 C-58.68705182 92.58318681 -61.16744114 89.19295558 -63.9453125 86 C-65.8828125 83.625 -65.8828125 83.625 -65.8828125 81.625 C-66.5428125 81.625 -67.2028125 81.625 -67.8828125 81.625 C-71.59816095 77.8003766 -72.19930726 74.8051244 -72.3203125 69.5 C-72.10316072 62.87312662 -70.69983583 56.96931256 -68.8828125 50.625 C-68.15386711 47.88012936 -67.4546549 45.1281668 -66.7578125 42.375 C-66.58733398 41.7255542 -66.41685547 41.0761084 -66.24121094 40.40698242 C-65.39152456 37.08129641 -64.7512371 33.82450975 -64.3828125 30.41796875 C-63.63352061 24.73388732 -62.13657764 21.5248412 -57.8828125 17.625 C-53.50272887 14.97251907 -48.79321637 13.00396848 -44.1015625 10.9765625 C-40.58931628 9.44944203 -37.28112852 7.77158305 -33.9765625 5.8359375 C-22.70256289 -0.75880777 -13.00517025 -4.99440596 0 0 Z M-18.04296875 19.63671875 C-18.83179443 20.06162598 -19.62062012 20.4865332 -20.43334961 20.92431641 C-21.26229736 21.38241699 -22.09124512 21.84051758 -22.9453125 22.3125 C-28.34996273 25.29462361 -33.4137143 27.8851797 -39.3203125 29.75 C-43.14594156 31.37855726 -43.76041416 32.32288981 -45.359375 36.26953125 C-46.1363802 39.06339553 -46.70945462 41.85782966 -47.19921875 44.71484375 C-47.81139086 48.21646821 -48.75511591 51.26865403 -49.8828125 54.625 C-50.35671455 56.98924469 -50.7723536 59.36582184 -51.1328125 61.75 C-51.32359375 62.94882813 -51.514375 64.14765625 -51.7109375 65.3828125 C-51.89126321 68.78441106 -51.83788635 69.91711035 -49.8828125 72.625 C-48.22461307 74.3000911 -46.55673069 75.96561655 -44.8828125 77.625 C-42.61302906 80.42437137 -40.49838525 83.34111055 -38.36914062 86.24804688 C-37.25136017 87.74126503 -36.0717301 89.18777749 -34.8828125 90.625 C-34.2228125 90.625 -33.5628125 90.625 -32.8828125 90.625 C-32.41875 91.5840625 -32.41875 91.5840625 -31.9453125 92.5625 C-31.0482962 94.56110821 -31.0482962 94.56110821 -29.8828125 95.625 C-24.84471836 95.96553682 -19.80449239 96.02467006 -14.75610352 96.08496094 C-13.0575737 96.11151818 -11.35920363 96.15238963 -9.66137695 96.20800781 C-0.16218957 96.87098487 -0.16218957 96.87098487 8.60009766 94.1015625 C10.73126505 91.68669871 12.1171875 89.89990294 12.1171875 86.625 C12.7771875 86.625 13.4371875 86.625 14.1171875 86.625 C15.70544972 84.91002228 15.70544972 84.91002228 17.2421875 82.75 C17.78101562 82.03070313 18.31984375 81.31140625 18.875 80.5703125 C20.29658382 78.72873994 20.29658382 78.72873994 20.1171875 76.625 C20.7771875 76.625 21.4371875 76.625 22.1171875 76.625 C25.94445421 72.79265719 25.94445421 72.79265719 27.10571289 67.75610352 C26.86129799 65.3593383 26.51110235 63.00185364 26.1171875 60.625 C25.97385986 59.73643311 25.83053223 58.84786621 25.68286133 57.93237305 C25.20665632 55.09576115 24.69777237 52.26674416 24.1796875 49.4375 C24.01017578 48.47908203 23.84066406 47.52066406 23.66601562 46.53320312 C22.58757049 37.69650245 22.58757049 37.69650245 17.76171875 30.83203125 C16.82714844 30.37183594 15.89257812 29.91164063 14.9296875 29.4375 C13.93453125 28.93863281 12.939375 28.43976562 11.9140625 27.92578125 C8.67647643 26.42003242 5.40798259 25.01059793 2.1171875 23.625 C-0.96929704 22.04501387 -4.04654677 20.45003879 -7.11328125 18.83203125 C-11.42314122 16.95368607 -14.09562692 17.46931188 -18.04296875 19.63671875 Z " fill="#A20055" transform="translate(71.8828125,4.375)"/>
<path d="M0 0 C4.90022906 2.13599728 8.78716941 5.03632776 12.94921875 8.37890625 C15.10891201 10.13097502 15.10891201 10.13097502 18 12 C16.80909819 19.64979283 15.33146705 27.15453492 13.48828125 34.67578125 C12.94708924 38.36021643 13.31192422 41.35643092 14 45 C15.485 45.495 15.485 45.495 17 46 C18.6484375 47.8203125 18.6484375 47.8203125 20.375 50.125 C20.98859375 50.93710938 21.6021875 51.74921875 22.234375 52.5859375 C24.09150153 55.12510607 25.90992273 57.68544887 27.6640625 60.296875 C31.69839483 65.50889409 31.69839483 65.50889409 37.77709961 67.69458008 C39.23476843 67.74748817 40.69371572 67.7709254 42.15234375 67.76953125 C42.93009659 67.7814299 43.70784943 67.79332855 44.50917053 67.80558777 C46.14885711 67.82208464 47.78872117 67.8255104 49.4284668 67.81665039 C51.92867371 67.8125146 54.42081562 67.8776067 56.91992188 67.94726562 C65.12894653 68.29698012 65.12894653 68.29698012 72.39501953 65.16162109 C74.0432011 63.02001829 74.0432011 63.02001829 75.12719727 60.72143555 C75.41522217 60.15336182 75.70324707 59.58528809 76 59 C76.66 59 77.32 59 78 59 C78.495 58.01 78.495 58.01 79 57 C79.73605469 57.54269531 80.47210938 58.08539063 81.23046875 58.64453125 C82.20628906 59.35996094 83.18210937 60.07539062 84.1875 60.8125 C85.15042969 61.52019531 86.11335938 62.22789063 87.10546875 62.95703125 C89.93644769 65.02393008 89.93644769 65.02393008 92.86328125 66.63671875 C93.56839844 67.08660156 94.27351563 67.53648438 95 68 C95 68.66 95 69.32 95 70 C93.88665707 71.11334293 92.76716289 72.22093067 91.625 73.3046875 C88.83682928 76.21350022 86.48552662 79.48089412 84.0625 82.6953125 C81.26898686 85.8168518 79.00213969 87.73615421 74.7208252 88.300354 C71.84666865 88.44759862 68.98732371 88.4944661 66.109375 88.50390625 C64.5205954 88.51888405 64.5205954 88.51888405 62.89971924 88.53416443 C60.66056211 88.54933395 58.42133736 88.55639058 56.18212891 88.5559082 C52.77521367 88.56245157 49.37124131 88.61689875 45.96484375 88.67382812 C43.78386408 88.68263452 41.60287063 88.68858584 39.421875 88.69140625 C38.41219666 88.7129628 37.40251831 88.73451935 36.36224365 88.75672913 C28.2657928 88.67922503 23.06109536 86.04118364 17.34124756 80.34938049 C14 76.54248079 14 76.54248079 14 74 C13.34 74 12.68 74 12 74 C10.4979541 72.1762979 9.07283831 70.28886233 7.6875 68.375 C5.19576068 64.95818681 2.71537136 61.56795558 -0.0625 58.375 C-2 56 -2 56 -2 54 C-2.66 54 -3.32 54 -4 54 C-7.71534845 50.1753766 -8.31649476 47.1801244 -8.4375 41.875 C-8.22032817 35.24751488 -6.81509054 29.34519045 -5 23 C-4.27150099 20.23417324 -3.57252303 17.4612739 -2.875 14.6875 C-2.70452148 14.02967529 -2.53404297 13.37185059 -2.35839844 12.6940918 C-1.28412504 8.46801132 -0.5473514 4.31737381 0 0 Z " fill="#031BB3" transform="translate(8,32)"/>
<path d="M0 0 C0 1.65 0 3.3 0 5 C0.55945313 5.12632813 1.11890625 5.25265625 1.6953125 5.3828125 C4.17905946 6.04795152 6.48941941 6.91630873 8.875 7.875 C9.75542969 8.22691406 10.63585937 8.57882813 11.54296875 8.94140625 C14 10 14 10 17.1875 11.8125 C20.8138487 13.34362501 23.18202601 12.65950902 27 12 C27.07406517 16.5206339 27.12856045 21.040916 27.16479492 25.56201172 C27.17989711 27.10048574 27.20038046 28.63891661 27.22631836 30.17724609 C27.26264074 32.38650141 27.27971119 34.59518848 27.29296875 36.8046875 C27.30845261 37.49432587 27.32393646 38.18396423 27.33988953 38.89450073 C27.34057617 40.83544922 27.34057617 40.83544922 27 44 C24 46 24 46 20 46 C20 46.66 20 47.32 20 48 C18.12616097 48.79441072 16.25087114 49.58539974 14.375 50.375 C13.33085938 50.81585938 12.28671875 51.25671875 11.2109375 51.7109375 C8.17096798 52.93136322 5.11794095 53.9981391 2 55 C2 53.02 2 51.04 2 49 C1.443125 48.82984375 0.88625 48.6596875 0.3125 48.484375 C-12.62376238 44.37623762 -12.62376238 44.37623762 -16 41 C-19.68142974 40.7015057 -21.78832601 41.26747651 -25 43 C-25.12363227 38.64015539 -25.21434908 34.28123945 -25.2746582 29.92016602 C-25.2997981 28.43691232 -25.33391592 26.95378247 -25.37719727 25.47094727 C-25.43788258 23.33839405 -25.46621116 21.20747795 -25.48828125 19.07421875 C-25.51446533 17.79119873 -25.54064941 16.50817871 -25.56762695 15.1862793 C-25 12 -25 12 -22.69848633 10.18334961 C-21.80798584 9.79284424 -20.91748535 9.40233887 -20 9 C-19.37399902 8.65050293 -18.74799805 8.30100586 -18.10302734 7.94091797 C-16.19497212 6.91650479 -14.2859834 5.89394232 -12.375 4.875 C-11.70726562 4.51535156 -11.03953125 4.15570313 -10.3515625 3.78515625 C-3.26325492 0 -3.26325492 0 0 0 Z " fill="#0063FF" transform="translate(58,35)"/>
<path d="M0 0 C3.37318946 1.59485527 6.70081481 3.25742411 10 5 C6.98706723 7.44311097 3.99013667 9.02060735 0.4375 10.5625 C-2.61716061 11.89295598 -5.21810409 13.14540273 -8 15 C-8.41609272 17.32300384 -8.41609272 17.32300384 -8.29296875 20.0078125 C-8.28330078 20.99394531 -8.27363281 21.98007813 -8.26367188 22.99609375 C-8.23853516 24.02863281 -8.21339844 25.06117187 -8.1875 26.125 C-8.17396484 27.16527344 -8.16042969 28.20554687 -8.14648438 29.27734375 C-8.11105228 31.85207627 -8.06165221 34.4257833 -8 37 C-9.31636796 36.61722634 -10.62786266 36.21770403 -11.9375 35.8125 C-13.03384766 35.48185547 -13.03384766 35.48185547 -14.15234375 35.14453125 C-18.28016332 33.4854762 -22.11109463 31.16050298 -26 29 C-26 21.74 -26 14.48 -26 7 C-25.01 7 -24.02 7 -23 7 C-23.66 6.67 -24.32 6.34 -25 6 C-25 5.34 -25 4.68 -25 4 C-24.34773438 3.74605469 -23.69546875 3.49210937 -23.0234375 3.23046875 C-22.14945313 2.88628906 -21.27546875 2.54210938 -20.375 2.1875 C-19.45589844 1.82914063 -18.53679688 1.47078125 -17.58984375 1.1015625 C-14.84059536 0.01437713 -14.84059536 0.01437713 -11.9375 -1.9375 C-7.37833428 -3.58655994 -4.28176671 -1.92645466 0 0 Z " fill="#0221B1" transform="translate(67,45)"/>
<path d="M0 0 C0 7.26 0 14.52 0 22 C-2.248125 23.155 -4.49625 24.31 -6.8125 25.5 C-7.51608643 25.86544922 -8.21967285 26.23089844 -8.94458008 26.60742188 C-11.8253249 28.06703235 -13.72912723 29 -17 29 C-17 21.74 -17 14.48 -17 7 C-14.56625 5.845 -12.1325 4.69 -9.625 3.5 C-8.86010254 3.13455078 -8.09520508 2.76910156 -7.30712891 2.39257812 C-2.22222222 0 -2.22222222 0 0 0 Z " fill="#0030C4" transform="translate(78,52)"/>
<path d="M0 0 C0.07406517 4.5206339 0.12856045 9.040916 0.16479492 13.56201172 C0.17989711 15.10048574 0.20038046 16.63891661 0.22631836 18.17724609 C0.26264074 20.38650141 0.27971119 22.59518848 0.29296875 24.8046875 C0.30845261 25.49432587 0.32393646 26.18396423 0.33988953 26.89450073 C0.34057617 28.83544922 0.34057617 28.83544922 0 32 C-3 34 -3 34 -7 34 C-7 34.66 -7 35.32 -7 36 C-8.87383903 36.79441072 -10.74912886 37.58539974 -12.625 38.375 C-13.66914062 38.81585938 -14.71328125 39.25671875 -15.7890625 39.7109375 C-18.82903202 40.93136322 -21.88205905 41.9981391 -25 43 C-25 40.69 -25 38.38 -25 36 C-22.418342 34.85026161 -19.83481693 33.70509641 -17.25 32.5625 C-16.52039063 32.23701172 -15.79078125 31.91152344 -15.0390625 31.57617188 C-14.33007812 31.26357422 -13.62109375 30.95097656 -12.890625 30.62890625 C-11.91657715 30.1968689 -11.91657715 30.1968689 -10.92285156 29.75610352 C-9 29 -9 29 -5 28 C-5 19.42 -5 10.84 -5 2 C-1 0 -1 0 0 0 Z " fill="#0064FF" transform="translate(85,47)"/>
<path d="M0 0 C0.79921875 0.31582031 1.5984375 0.63164063 2.421875 0.95703125 C6.09746332 2.55621677 9.66476987 4.39488494 13.25 6.1875 C13.25 14.7675 13.25 23.3475 13.25 32.1875 C10.548125 33.486875 7.84625 34.78625 5.0625 36.125 C3.79950073 36.73782837 3.79950073 36.73782837 2.51098633 37.36303711 C-5.41835652 41.13402258 -5.41835652 41.13402258 -8.75 41.1875 C-11.4803512 40.19075045 -13.91764927 39.16119974 -16.5 37.875 C-17.18449219 37.55337891 -17.86898437 37.23175781 -18.57421875 36.90039062 C-23.60687276 34.47375448 -23.60687276 34.47375448 -24.75 32.1875 C-18.29072706 33.73210875 -14.03860933 36.04319534 -7.75 39.1875 C-8.245 27.8025 -8.245 27.8025 -8.75 16.1875 C-2.75 13.1875 3.25 10.1875 9.25 7.1875 C6.71785314 5.95450687 4.17764789 4.75164946 1.625 3.5625 C0.55572266 3.0365625 0.55572266 3.0365625 -0.53515625 2.5 C-4.16704457 0.83399618 -6.00400004 0.03847848 -10.015625 0.83984375 C-13.00370716 2.31254138 -15.92467485 3.83495579 -18.8203125 5.48046875 C-21.20355721 6.35368189 -22.36098062 5.87925425 -24.75 5.1875 C-22.17362412 3.81842584 -19.59031896 2.46721545 -17 1.125 C-16.27039062 0.73505859 -15.54078125 0.34511719 -14.7890625 -0.05664062 C-14.08007812 -0.42080078 -13.37109375 -0.78496094 -12.640625 -1.16015625 C-11.99125977 -1.50054932 -11.34189453 -1.84094238 -10.67285156 -2.19165039 C-6.95521073 -3.3920009 -3.47882222 -1.39042098 0 0 Z M1.625 12.6875 C-2.025625 14.42 -2.025625 14.42 -5.75 16.1875 C-5.75 23.4475 -5.75 30.7075 -5.75 38.1875 C-1.83551367 37.20887842 1.35688436 35.83726435 5 34.125 C7.0625 33.155625 9.125 32.18625 11.25 31.1875 C11.25 23.9275 11.25 16.6675 11.25 9.1875 C7.76798866 9.1875 4.72272241 11.20748432 1.625 12.6875 Z " fill="#ACC0F1" transform="translate(66.75,42.8125)"/>
<path d="M0 0 C6.72239529 2.06008888 12.78592664 4.71782764 19 8 C16.00377381 10.41676735 13.00933902 12.05351027 9.5 13.625 C8.5615625 14.05039062 7.623125 14.47578125 6.65625 14.9140625 C4 16 4 16 0 17 C0 11.39 0 5.78 0 0 Z " fill="#031EAE" transform="translate(58,42)"/>
<path d="M0 0 C0 5.28 0 10.56 0 16 C-8.44117647 13.58823529 -8.44117647 13.58823529 -12 11 C-12 10.34 -12 9.68 -12 9 C-13.32 8.67 -14.64 8.34 -16 8 C-16 7.34 -16 6.68 -16 6 C-15.32453125 5.73445313 -14.6490625 5.46890625 -13.953125 5.1953125 C-13.06109375 4.84210937 -12.1690625 4.48890625 -11.25 4.125 C-10.36828125 3.77695312 -9.4865625 3.42890625 -8.578125 3.0703125 C-6.0324254 2.05443666 -6.0324254 2.05443666 -3.796875 0.8671875 C-2 0 -2 0 0 0 Z " fill="#1A39BB" transform="translate(58,43)"/>
<path d="M0 0 C1.11375 0.5775 2.2275 1.155 3.375 1.75 C2.715 2.41 2.055 3.07 1.375 3.75 C0.86114746 3.49718262 0.34729492 3.24436523 -0.18212891 2.98388672 C-2.52868739 1.84361668 -4.88864718 0.73428668 -7.25 -0.375 C-8.05824219 -0.77332031 -8.86648437 -1.17164063 -9.69921875 -1.58203125 C-14.62290155 -3.89552844 -14.62290155 -3.89552844 -19.953125 -3.62890625 C-20.83484375 -3.17386719 -21.7165625 -2.71882813 -22.625 -2.25 C-23.34945312 -1.88519531 -24.07390625 -1.52039062 -24.8203125 -1.14453125 C-26.11407146 -0.41908341 -27.40572514 0.31013095 -28.6953125 1.04296875 C-31.07855721 1.91618189 -32.23598062 1.44175425 -34.625 0.75 C-32.04862412 -0.61907416 -29.46531896 -1.97028455 -26.875 -3.3125 C-26.14539062 -3.70244141 -25.41578125 -4.09238281 -24.6640625 -4.49414062 C-23.95507812 -4.85830078 -23.24609375 -5.22246094 -22.515625 -5.59765625 C-21.86625977 -5.93804932 -21.21689453 -6.27844238 -20.54785156 -6.62915039 C-14.52335818 -8.57433661 -5.31272407 -2.65636203 0 0 Z " fill="#D9E1F7" transform="translate(76.625,47.25)"/>
<path d="M0 0 C0.66 0 1.32 0 2 0 C2 0.66 2 1.32 2 2 C3.32 2.66 4.64 3.32 6 4 C4.35 3.67 2.7 3.34 1 3 C1.33 10.59 1.66 18.18 2 26 C1.01 26 0.02 26 -1 26 C-1.02886751 21.85418113 -1.04675327 17.70838784 -1.0625 13.5625 C-1.07087891 12.37849609 -1.07925781 11.19449219 -1.08789062 9.97460938 C-1.09111328 8.84990234 -1.09433594 7.72519531 -1.09765625 6.56640625 C-1.10289307 5.52427979 -1.10812988 4.48215332 -1.11352539 3.40844727 C-1 1 -1 1 0 0 Z " fill="#96B0EE" transform="translate(40,49)"/>
</svg>
